<?xml version="1.0" encoding="UTF-8" standalone="no"?>
<svg
   xmlns:dc="http://purl.org/dc/elements/1.1/"
   xmlns:cc="http://creativecommons.org/ns#"
   xmlns:rdf="http://www.w3.org/1999/02/22-rdf-syntax-ns#"
   xmlns:svg="http://www.w3.org/2000/svg"
   xmlns="http://www.w3.org/2000/svg"
   viewBox="0 0 266.66666 80"
   height="80"
   width="266.66666"
   xml:space="preserve"
   id="svg2"
   version="1.1"><metadata
     id="metadata8"><rdf:RDF><cc:Work
         rdf:about=""><dc:format>image/svg+xml</dc:format><dc:type
           rdf:resource="http://purl.org/dc/dcmitype/StillImage" /></cc:Work></rdf:RDF></metadata><defs
     id="defs6"><linearGradient
       id="linearGradient30"
       spreadMethod="pad"
       gradientTransform="matrix(-24.108396,-24.108396,24.108396,-24.108396,33.183712,52.989628)"
       gradientUnits="userSpaceOnUse"
       y2="0"
       x2="1"
       y1="0"
       x1="0"><stop
         id="stop24"
         offset="0"
         style="stop-opacity:1;stop-color:#00bbff" /><stop
         id="stop26"
         offset="0.0486646"
         style="stop-opacity:1;stop-color:#00bbff" /><stop
         id="stop28"
         offset="1"
         style="stop-opacity:1;stop-color:#001780" /></linearGradient><linearGradient
       id="linearGradient52"
       spreadMethod="pad"
       gradientTransform="matrix(45.978382,0,0,-45.978382,6.8989458,29.683876)"
       gradientUnits="userSpaceOnUse"
       y2="0"
       x2="1"
       y1="0"
       x1="0"><stop
         id="stop46"
         offset="0"
         style="stop-opacity:1;stop-color:#00bbff" /><stop
         id="stop48"
         offset="0.0486646"
         style="stop-opacity:1;stop-color:#00bbff" /><stop
         id="stop50"
         offset="1"
         style="stop-opacity:1;stop-color:#001780" /></linearGradient><clipPath
       id="clipPath62"
       clipPathUnits="userSpaceOnUse"><path
         id="path60"
         d="M 0,60 H 200 V 0 H 0 Z" /></clipPath></defs><g
     transform="matrix(1.3333333,0,0,-1.3333333,0,80)"
     id="g10"><g
       id="g12"><g
         id="g14"><g
           id="g20"><g
             id="g22"><path
               id="path32"
               style="fill:url(#linearGradient30);stroke:none"
               d="M 8.804,40.648 C 6.522,36.234 5.871,30.636 8.587,29.667 v 0 c 2.716,-0.97 4.78,2.045 4.019,6.352 v 0 c -0.76,4.306 1.955,4.845 1.955,4.845 v 0 c 2.608,1.184 1.304,-2.691 1.304,-2.691 v 0 c -2.607,-4.307 0.652,-5.168 0.652,-5.168 v 0 c 0,0 3.368,-0.539 3.042,3.014 v 0 c -0.326,3.553 0.977,6.137 0.977,6.137 v 0 c 6.193,11.52 18.686,3.122 18.686,3.122 v 0 l -5.54,7.214 c -1.239,0.101 -2.416,0.148 -3.535,0.148 v 0 C 15.75,52.64 10.921,44.745 8.804,40.648" /></g></g></g></g><g
       id="g34"><g
         id="g36"><g
           id="g42"><g
             id="g44"><path
               id="path54"
               style="fill:url(#linearGradient52);stroke:none"
               d="M 21.138,51.413 C 33.898,51.26 43.962,42.421 43.962,29.105 v 0 c 0,-13.432 -22.35,-22.962 -36.423,-6.24 v 0 C 7.318,23.129 7.105,23.38 6.898,23.624 v 0 C 9.589,13.439 18.736,6.368 29.554,6.368 v 0 c 12.921,0 23.324,9.816 23.324,23.248 v 0 C 52.878,43.05 42.881,53 29.961,53 v 0 c -3.096,0 -6.077,-0.557 -8.823,-1.587" /></g></g></g></g><g
       id="g56"><g
         clip-path="url(#clipPath62)"
         id="g58"><g
           transform="translate(22.7817,36.8242)"
           id="g64"><path
             id="path66"
             style="fill:#00bbff;fill-opacity:1;fill-rule:nonzero;stroke:none"
             d="M 0,0 C 0,0 -3.722,1.504 3.035,7.775 3.035,7.775 3.751,-0.965 0,0" /></g><g
           transform="translate(61.1733,52.9858)"
           id="g68"><path
             id="path70"
             style="fill:#00bbff;fill-opacity:1;fill-rule:nonzero;stroke:none"
             d="m 0,0 h 33.797 v -35.1 h -6.759 v 28.08 h -6.76 V -35.1 H 13.519 V -7.02 H 6.759 V -35.1 H 0 Z" /></g><path
           id="path72"
           style="fill:#00bbff;fill-opacity:1;fill-rule:nonzero;stroke:none"
           d="m 128.767,45.966 h -20.278 v -7.02 h 20.278 z m -27.038,7.02 h 33.796 v -21.06 h -27.037 v -14.04 h -6.759 z" /><g
           transform="translate(142.2842,52.9858)"
           id="g74"><path
             id="path76"
             style="fill:#00bbff;fill-opacity:1;fill-rule:nonzero;stroke:none"
             d="M 0,0 H 33.797 V -7.02 H 6.76 v -7.02 h 13.518 v -7.02 H 6.76 v -7.021 H 33.797 V -35.1 H 0 Z" /></g><g
           transform="translate(60.9746,7.708)"
           id="g78"><path
             id="path80"
             style="fill:#88868a;fill-opacity:1;fill-rule:nonzero;stroke:none"
             d="M 0,0 H 5.167 V 1.342 H 0 V 5.366 H 6.459 V 4.024 H 1.292 V 2.683 h 5.167 v -4.025 l -6.459,0 z" /></g><g
           transform="translate(68.7236,13.0742)"
           id="g82"><path
             id="path84"
             style="fill:#88868a;fill-opacity:1;fill-rule:nonzero;stroke:none"
             d="M 0,0 H 6.459 V -1.342 H 1.292 v -1.342 h 2.583 v -1.34 H 1.292 V -5.366 H 6.459 V -6.708 H 0 Z" /></g><path
           id="path86"
           style="fill:#88868a;fill-opacity:1;fill-rule:nonzero;stroke:none"
           d="M 81.64,11.732 H 77.765 V 10.39 h 3.875 z m -5.167,1.342 h 6.459 V 9.05 H 80.348 L 82.064,7.278 81.196,6.366 78.612,9.05 H 77.765 V 6.366 h -1.292 z" /><g
           transform="translate(89.3994,9.4902)"
           id="g88"><path
             id="path90"
             style="fill:#88868a;fill-opacity:1;fill-rule:nonzero;stroke:none"
             d="M 0,0 -0.01,3.584 H 1.281 V -0.44 l -2.583,-2.684 h -1.292 l -2.584,2.684 v 4.024 h 1.292 l 0.011,-3.501 1.695,-1.75 h 0.575 z" /></g><path
           id="path92"
           style="fill:#88868a;fill-opacity:1;fill-rule:nonzero;stroke:none"
           d="m 91.971,13.074 h 1.292 V 6.366 h -1.292 z" /><g
           transform="translate(94.5537,13.0742)"
           id="g94"><path
             id="path96"
             style="fill:#88868a;fill-opacity:1;fill-rule:nonzero;stroke:none"
             d="M 0,0 H 6.459 V -1.342 H 1.292 V -5.366 H 6.459 V -6.708 H 0 Z" /></g><g
           transform="translate(102.3027,13.0742)"
           id="g98"><path
             id="path100"
             style="fill:#88868a;fill-opacity:1;fill-rule:nonzero;stroke:none"
             d="M 0,0 H 6.459 V -1.342 H 1.292 v -1.342 h 2.583 v -1.34 H 1.292 V -5.366 H 6.459 V -6.708 H 0 Z" /></g><g
           transform="translate(110.0518,7.708)"
           id="g102"><path
             id="path104"
             style="fill:#88868a;fill-opacity:1;fill-rule:nonzero;stroke:none"
             d="M 0,0 H 5.167 V 1.342 H 0 V 5.366 H 6.459 V 4.024 H 1.292 V 2.683 h 5.167 v -4.025 l -6.459,0 z" /></g><g
           transform="translate(125.5605,8.1484)"
           id="g106"><path
             id="path108"
             style="fill:#88868a;fill-opacity:1;fill-rule:nonzero;stroke:none"
             d="m 0,0 v 3.123 l -0.443,0.461 h -3.443 v -4.035 h 3.443 z M -5.178,4.926 H -0.01 L 1.282,3.584 V -0.44 L -0.01,-1.782 h -5.168 z" /></g><path
           id="path110"
           style="fill:#88868a;fill-opacity:1;fill-rule:nonzero;stroke:none"
           d="m 128.132,13.074 h 1.292 V 10.39 h -1.292 z" /><g
           transform="translate(130.7148,13.0742)"
           id="g112"><path
             id="path114"
             style="fill:#88868a;fill-opacity:1;fill-rule:nonzero;stroke:none"
             d="M 0,0 H 6.459 V -1.342 H 1.292 v -1.342 h 2.584 v -1.34 H 1.292 V -5.366 H 6.459 V -6.708 H 0 Z" /></g><g
           transform="translate(138.4639,13.0742)"
           id="g116"><path
             id="path118"
             style="fill:#88868a;fill-opacity:1;fill-rule:nonzero;stroke:none"
             d="M 0,0 H 6.459 V -6.708 H 5.168 v 5.366 H 1.292 V -6.708 H 0 Z" /></g><g
           transform="translate(148.7969,11.7324)"
           id="g120"><path
             id="path122"
             style="fill:#88868a;fill-opacity:1;fill-rule:nonzero;stroke:none"
             d="M 0,0 H -2.584 V 1.342 H 3.875 V 0 H 1.292 V -5.366 H 0 Z" /></g><path
           id="path124"
           style="fill:#88868a;fill-opacity:1;fill-rule:nonzero;stroke:none"
           d="m 159.13,11.732 h -3.876 V 10.39 h 3.876 z m -5.168,1.342 h 6.459 V 9.05 h -2.583 l 1.716,-1.772 -0.868,-0.912 -2.584,2.684 h -0.848 V 6.366 h -1.292 z" /><g
           transform="translate(161.7109,13.0742)"
           id="g126"><path
             id="path128"
             style="fill:#88868a;fill-opacity:1;fill-rule:nonzero;stroke:none"
             d="M 0,0 H 6.459 V -1.342 H 1.292 v -1.342 h 2.584 v -1.34 H 1.292 V -5.366 H 6.459 V -6.708 H 0 Z" /></g><g
           transform="translate(172.043,11.7324)"
           id="g130"><path
             id="path132"
             style="fill:#88868a;fill-opacity:1;fill-rule:nonzero;stroke:none"
             d="M 0,0 H -2.583 V 1.342 H 3.876 V 0 H 1.292 V -5.366 H 0 Z" /></g><path
           id="path134"
           style="fill:#88868a;fill-opacity:1;fill-rule:nonzero;stroke:none"
           d="M 177.209,13.074 H 178.5 V 6.366 h -1.291 z" /><g
           transform="translate(179.792,13.0742)"
           id="g136"><path
             id="path138"
             style="fill:#88868a;fill-opacity:1;fill-rule:nonzero;stroke:none"
             d="M 0,0 H 6.459 V -1.342 H 1.292 v -1.342 h 2.583 v -1.34 H 1.292 V -5.366 H 6.459 V -6.708 H 0 Z" /></g><g
           transform="translate(187.541,13.0742)"
           id="g140"><path
             id="path142"
             style="fill:#88868a;fill-opacity:1;fill-rule:nonzero;stroke:none"
             d="M 0,0 H 6.459 V -6.708 H 5.167 v 5.366 H 1.292 V -6.708 H 0 Z" /></g></g></g></g></svg>